<?xml version="1.0" encoding="UTF-8" standalone="no"?>
<svg
   xmlns:dc="http://purl.org/dc/elements/1.1/"
   xmlns:cc="http://creativecommons.org/ns#"
   xmlns:rdf="http://www.w3.org/1999/02/22-rdf-syntax-ns#"
   xmlns:svg="http://www.w3.org/2000/svg"
   xmlns="http://www.w3.org/2000/svg"
   id="svg8"
   version="1.1"
   viewBox="0 0 13.004451 13.004268"
   height="13.004268mm"
   width="13.004451mm">
  <defs
     id="defs2" />
  <metadata
     id="metadata5">
    <rdf:RDF>
      <cc:Work
         rdf:about="">
        <dc:format>image/svg+xml</dc:format>
        <dc:type
           rdf:resource="http://purl.org/dc/dcmitype/StillImage" />
        <dc:title></dc:title>
      </cc:Work>
    </rdf:RDF>
  </metadata>
  <g
     transform="translate(-16.969733,-127.81506)"
     id="layer1">
    <path
       id="path821"
       d="m 18.574367,129.41969 c -2.139509,2.13951 -2.139514,5.63855 0,7.77806 1.898009,1.89801 4.86529,2.11046 7.004862,0.64093 l 2.686842,2.68684 c 0.391737,0.39174 1.022391,0.39174 1.414128,0 0.391737,-0.39174 0.392102,-1.02275 3.64e-4,-1.41449 l -2.686842,-2.68684 c 1.46934,-2.13956 1.256643,-5.10657 -0.641289,-7.0045 -2.139514,-2.13951 -5.638557,-2.13951 -7.778065,0 z m 1.414126,1.41413 c 1.375211,-1.37522 3.574594,-1.37522 4.949812,0 1.375208,1.3752 1.37521,3.5746 -1e-6,4.94981 -1.375212,1.37521 -3.574602,1.37521 -4.94981,0 -1.375218,-1.37522 -1.375213,-3.5746 -1e-6,-4.94981 z"
       style="color:#000000;font-style:normal;font-variant:normal;font-weight:normal;font-stretch:normal;font-size:medium;line-height:normal;font-family:sans-serif;font-variant-ligatures:normal;font-variant-position:normal;font-variant-caps:normal;font-variant-numeric:normal;font-variant-alternates:normal;font-feature-settings:normal;text-indent:0;text-align:start;text-decoration:none;text-decoration-line:none;text-decoration-style:solid;text-decoration-color:#000000;letter-spacing:normal;word-spacing:normal;text-transform:none;writing-mode:lr-tb;direction:ltr;text-orientation:mixed;dominant-baseline:auto;baseline-shift:baseline;text-anchor:start;white-space:normal;shape-padding:0;clip-rule:nonzero;display:inline;overflow:visible;visibility:visible;opacity:1;isolation:auto;mix-blend-mode:normal;color-interpolation:sRGB;color-interpolation-filters:linearRGB;solid-color:#000000;solid-opacity:1;vector-effect:none;fill-opacity:0.9935484;fill-rule:nonzero;stroke:none;stroke-width:1.99999988;stroke-linecap:butt;stroke-linejoin:miter;stroke-miterlimit:4;stroke-dasharray:none;stroke-dashoffset:0;stroke-opacity:1;color-rendering:auto;image-rendering:auto;shape-rendering:auto;text-rendering:auto;enable-background:accumulate" />
  </g>
</svg>
